# xmcd CD Database Entry
#
# Track frame offsets:
# 150
# 14357
# 29515
# 44160
# 54827
# 65573
# 74882
# 87280
# 99586
# 113768
# 128320
# 138968
# 151392
# 161392
# 170794
# 186977
# 199532
# 209693
# 226516
# 241429
# 256052
# 271954
# 287818
# 300048
# 311317
# 322836
# 332544
#
# Disc length: 4491 seconds
#
# Revision: 1
# Processed by: cddbd v1.4PL0 Copyright (c) Steve Scherf et al.
# Submitted via: tcd 2.0b
#
DISCID=7211891b
DTITLE=Inconnu - Inconnu
DYEAR=1900
DGENRE=
TTITLE0=Piste 1
TTITLE1=Piste 2
TTITLE2=Piste 3
TTITLE3=Piste 4
TTITLE4=Piste 5
TTITLE5=Piste 6
TTITLE6=Piste 7
TTITLE7=Piste 8
TTITLE8=Piste 9
TTITLE9=Piste 10
TTITLE10=Piste 11
TTITLE11=Piste 12
TTITLE12=Piste 13
TTITLE13=Piste 14
TTITLE14=Piste 15
TTITLE15=Piste 16
TTITLE16=Piste 17
TTITLE17=Piste 18
TTITLE18=Piste 19
TTITLE19=Piste 20
TTITLE20=Piste 21
TTITLE21=Piste 22
TTITLE22=Piste 23
TTITLE23=Piste 24
TTITLE24=Piste 25
TTITLE25=Piste 26
TTITLE26=Piste 27
EXTD=
EXTT0=
EXTT1=
EXTT2=
EXTT3=
EXTT4=
EXTT5=
EXTT6=
EXTT7=
EXTT8=
EXTT9=
EXTT10=
EXTT11=
EXTT12=
EXTT13=
EXTT14=
EXTT15=
EXTT16=
EXTT17=
EXTT18=
EXTT19=
EXTT20=
EXTT21=
EXTT22=
EXTT23=
EXTT24=
EXTT25=
EXTT26=
PLAYORDER=
